<svg xmlns="http://www.w3.org/2000/svg" viewBox="0 0 82.75 167.72"><g id="Layer_2" data-name="Layer 2"><g id="레이어_1" data-name="레이어 1"><path d="M27.07,62V43.93c0-6.92,0-13.86-.06-20.78a5.37,5.37,0,0,1,.06-.72V0H48V68.33c0,19.23-.52,38.46,0,57.64a37.21,37.21,0,0,0,1.5,10.48c2.51,7,6.78,11.86,14.46,12.52a56.58,56.58,0,0,0,18.73-1.16V165.3s-8.26,3.82-24.93,1.86c-6.69-.78-12.93-2.61-18.21-7.06-7.26-6.14-10.73-14.33-12-23.62a65.17,65.17,0,0,1-.57-9.15q0-29.29,0-58.62V63.2"/><line x1="27.07" y1="60.55" x2="27.07" y2="62.5"/><rect y="42.88" width="82.75" height="18.97"/></g></g></svg>