<svg xmlns="http://www.w3.org/2000/svg" viewBox="0 0 117.11 128.73"><g id="Layer_2" data-name="Layer 2"><g id="레이어_1" data-name="레이어 1"><path d="M115.58,46.6c-2.93-13.63-8.45-25.29-19-34C84.43,2.45,70.32-.88,55.08.19c-18,1.28-32.89,9-43.53,24.44-1,1.49-2,3-2.86,4.51C2.54,39.7,0,51.55,0,63.57c0,2.16.09,4.33.27,6.53s.44,4.32.79,6.51c2.2,14.1,8.22,25.94,18.05,35.25,1.35,1.28,2.76,2.51,4.25,3.69,10.77,8.54,23.07,12.44,36.45,13.09,14.36.68,27.69-2.5,39.71-11a61.24,61.24,0,0,0,12.82-12.37c-4.06-3.8-7.93-7.46-11.5-10.83l-1.75,1.85c-.74.67-1.47,1.36-2.19,2A72.81,72.81,0,0,1,89,105c-6.91,4.88-15.08,7.24-25,7.24-1.08,0-2.2,0-3.33-.09-14.15-.71-25.3-6.78-33.15-18a42.77,42.77,0,0,1-8.11-24H117C117.25,61.92,117.21,54.21,115.58,46.6ZM20,52.07c0-9.8,6.29-19.23,10.73-23.48,7-6.71,15.91-12.13,28.68-12.13C70.73,16.46,79,20,84.26,23.83c8.06,5.84,14.61,19,14.53,28.24Z"/></g></g></svg>