<svg xmlns="http://www.w3.org/2000/svg" viewBox="0 0 126.83 192.08"><g id="Layer_2" data-name="Layer 2"><g id="레이어_1" data-name="레이어 1"><path d="M116.88,130.43c0,16.59-5.64,32.24-17,44s-24.84,17.65-40.51,17.65-29.21-5.89-40.52-17.65-17-27.41-17-44H21.31c0,11.73,4,22.38,11.32,30,7.47,7.84,16.47,11.8,26.75,11.8s19.27-4,26.75-11.79c7.29-7.64,11.31-18.3,11.31-30Z"/><path d="M126.83,0H58.38Q34.23,0,17.11,17.68T0,61.78q0,26.09,17.28,44.49t42,18.44q24.45,0,41.72-18.44t17.25-44.49q0-26.13-16.69-43.51h25.31ZM59.24,105.85A37.31,37.31,0,0,1,30.35,93Q18.73,80,18.71,61.78q0-19.15,11.78-31A38.93,38.93,0,0,1,59.24,18.84q16.42,0,28.34,12.9a42.93,42.93,0,0,1,11.93,30Q99.51,80,87.86,93T59.24,105.85Z"/></g></g></svg>