<svg xmlns="http://www.w3.org/2000/svg" viewBox="0 0 101.74 121.56"><g id="Layer_2" data-name="Layer 2"><g id="레이어_1" data-name="레이어 1"><path d="M101.72,112.83v8.73H81.44v-8.62c0-21,0-42,0-63.08,0-8.08-1.52-15.79-6.6-22.4-4.72-6.1-11-9.14-18.62-9.93a37.72,37.72,0,0,0-17,1.68c-11,4-16.84,12.17-18.79,23.39-.13.71-.23,1.42-.31,2.13a56.32,56.32,0,0,0-.31,6.09c-.05,20.61,0,41.27,0,61.91v8.8H0V0H20.1V19.63C25.42,9.3,34.4,3.67,45.72,1.32a50.23,50.23,0,0,1,30.8,2.83c14,6.06,21.61,17.06,24.21,31.76a66.89,66.89,0,0,1,1,11.48C101.78,69.22,101.72,91,101.72,112.83Z"/></g></g></svg>