<svg xmlns="http://www.w3.org/2000/svg" viewBox="0 0 102.01 164.44"><g id="Layer_2" data-name="Layer 2"><g id="레이어_1" data-name="레이어 1"><path d="M102,156.43c0,.69-.08,7.21-.11,8h-20v-8.56c0-20.72.18-41.42-.08-62.14a59.23,59.23,0,0,0-2.25-14.83c-3-10.68-12.39-17.73-23.42-18.56-5.73-.4-11.34-.16-16.76,1.82C27.8,66.44,22.1,75.28,20.51,87.08A61.5,61.5,0,0,0,20,95.55q0,30,0,60v3h-.09v5.84H0V0H19.92V60.77c.36-.08-.05.08,0,0,5.68-9.22,14.73-14.54,25.19-16.54,10.23-2,20.42-1.65,30.21,2.17,14.23,5.56,22.46,16.24,25.49,31a57.57,57.57,0,0,1,1.16,11C102.05,111.08,102,133.76,102,156.43Z"/></g></g></svg>