<svg xmlns="http://www.w3.org/2000/svg" viewBox="0 0 115.45 192.21"><g id="Layer_2" data-name="Layer 2"><g id="레이어_1" data-name="레이어 1"><path d="M115.45,0V64.14c0,24.74-9.2,39.38-20,48a54.11,54.11,0,0,1-14.84,8.39.94.94,0,0,1-.3.15,64.42,64.42,0,0,1-18.49,4,5.93,5.93,0,0,1-.94,0q-25.41,0-40.6-15.48T5,69V0H25V68.37q0,15,10.48,24.92a35.57,35.57,0,0,0,25.39,9.92q15.56,0,25.08-11.38a39.51,39.51,0,0,0,9.49-26.06V0Z"/><path d="M94.55,130.56c0,11.7-3.62,23.05-11.45,30.7-8,7.82-18.41,11.09-29.45,11.09s-20-4.77-28.75-11.8A64,64,0,0,1,13,148.77L0,163.24c2.9,4.52,6.34,7.73,10.1,11.32a62.59,62.59,0,0,0,43.55,17.65c16.84,0,32.05-5.19,44.23-17s17.57-28.1,17.57-44.69Z"/></g></g></svg>